ISO-10303-21;
HEADER;
FILE_DESCRIPTION(('ViewDefinition [ReferenceView_V1.2]','TEST FIXTURE: synthetic document of a fictitious building. Not a real project.'),'2;1');
FILE_NAME('demo-hotel-arh.ifc','2026-01-15T09:00:00',('SOVITECH fixture generator'),('Studio Exemplu SRL (fictitious)'),'fixtures/generators STEP writer (no IfcOpenShell; docs/adr/0018)','SOVITECH TEST fixture generator 1','');
FILE_SCHEMA(('IFC4'));
ENDSEC;
DATA;
#100001=IFCPERSON($,'Fictiv','Autor',$,$,$,$,$);
#100002=IFCORGANIZATION($,'Studio Exemplu SRL (fictitious)',$,$,$);
#100003=IFCORGANIZATION($,'SOVITECH fixture generator','TEST FIXTURE: synthetic document of a fictitious building. Not a real project.',$,$);
#100004=IFCPERSONANDORGANIZATION(#100001,#100002,$);
#100005=IFCAPPLICATION(#100003,'1','SOVITECH TEST fixture generator 1','SOVITECH-TEST');
#100006=IFCOWNERHISTORY(#100004,#100005,$,.NOCHANGE.,$,$,$,1768467600);
#100007=IFCSIUNIT(*,.LENGTHUNIT.,.MILLI.,.METRE.);
#100008=IFCSIUNIT(*,.AREAUNIT.,$,.SQUARE_METRE.);
#100009=IFCSIUNIT(*,.VOLUMEUNIT.,$,.CUBIC_METRE.);
#100010=IFCSIUNIT(*,.PLANEANGLEUNIT.,$,.RADIAN.);
#100011=IFCSIUNIT(*,.POWERUNIT.,$,.WATT.);
#100012=IFCSIUNIT(*,.THERMODYNAMICTEMPERATUREUNIT.,$,.DEGREE_CELSIUS.);
#100013=IFCSIUNIT(*,.TIMEUNIT.,$,.SECOND.);
#100014=IFCDERIVEDUNITELEMENT(#100009,1);
#100015=IFCDERIVEDUNITELEMENT(#100013,-1);
#100016=IFCDERIVEDUNIT((#100014,#100015),.VOLUMETRICFLOWRATEUNIT.,$);
#100017=IFCUNITASSIGNMENT((#100007,#100008,#100009,#100010,#100011,#100012,#100016));
#100018=IFCSIUNIT(*,.POWERUNIT.,.KILO.,.WATT.);
#100019=IFCCARTESIANPOINT((0.,0.,0.));
#100020=IFCDIRECTION((0.,0.,1.));
#100021=IFCAXIS2PLACEMENT3D(#100019,$,$);
#100022=IFCGEOMETRICREPRESENTATIONCONTEXT($,'Model',3,1.E-05,#100021,$);
#100023=IFCGEOMETRICREPRESENTATIONSUBCONTEXT('Body','Model',*,*,*,*,#100022,$,.MODEL_VIEW.,$);
#100024=IFCAXIS2PLACEMENT3D(#100019,$,$);
#100025=IFCLOCALPLACEMENT($,#100024);
#100026=IFCAXIS2PLACEMENT3D(#100019,$,$);
#100027=IFCLOCALPLACEMENT(#100025,#100026);
#100028=IFCPROJECT('2a9EYp83HS7gsGYPSjusOS',#100006,'Demo Hotel Bucharest','TEST fixture: synthetic model of a fictitious hotel. Not a real project.',$,$,$,(#100022),#100017);
#100029=IFCSITE('3So33CGwPOp9uBy2n$EP1B',#100006,'Amplasament Demo Hotel Bucharest (fictiv)',$,$,#100025,$,$,.ELEMENT.,$,$,$,$,$);
#100030=IFCBUILDING('2YLPJDjU9GhRNuZz3hQfIP',#100006,'Demo Hotel Bucharest',$,$,#100027,$,$,.ELEMENT.,$,$,$);
#100031=IFCCARTESIANPOINT((0.,0.,-6500.));
#100032=IFCAXIS2PLACEMENT3D(#100031,$,$);
#100033=IFCLOCALPLACEMENT(#100027,#100032);
#100034=IFCBUILDINGSTOREY('06SDPASPTM$e15RWSw_e1V',#100006,'Subsol 2',$,$,#100033,$,$,.ELEMENT.,-6500.);
#100035=IFCCARTESIANPOINT((0.,0.,-3250.));
#100036=IFCAXIS2PLACEMENT3D(#100035,$,$);
#100037=IFCLOCALPLACEMENT(#100027,#100036);
#100038=IFCBUILDINGSTOREY('2iJ1N9JojOph52jnJY$Doa',#100006,'Subsol 1',$,$,#100037,$,$,.ELEMENT.,-3250.);
#100039=IFCAXIS2PLACEMENT3D(#100019,$,$);
#100040=IFCLOCALPLACEMENT(#100027,#100039);
#100041=IFCBUILDINGSTOREY('1uTlaQt5LJue$X3BUU0Hai',#100006,'Parter',$,$,#100040,$,$,.ELEMENT.,0.);
#100042=IFCCARTESIANPOINT((0.,0.,4500.));
#100043=IFCAXIS2PLACEMENT3D(#100042,$,$);
#100044=IFCLOCALPLACEMENT(#100027,#100043);
#100045=IFCBUILDINGSTOREY('1_cW$36CXNbwaB4SDZbNjL',#100006,'Etaj 1',$,$,#100044,$,$,.ELEMENT.,4500.);
#100046=IFCCARTESIANPOINT((0.,0.,7700.));
#100047=IFCAXIS2PLACEMENT3D(#100046,$,$);
#100048=IFCLOCALPLACEMENT(#100027,#100047);
#100049=IFCBUILDINGSTOREY('3Et8Nz$2PI7hU$xz2UaFm4',#100006,'Etaj 2',$,$,#100048,$,$,.ELEMENT.,7700.);
#100050=IFCCARTESIANPOINT((0.,0.,11000.));
#100051=IFCAXIS2PLACEMENT3D(#100050,$,$);
#100052=IFCLOCALPLACEMENT(#100027,#100051);
#100053=IFCBUILDINGSTOREY('3U1jFuAn5RqBFJMgIKSKSh',#100006,'Cot\X2\0103\X0\ atic',$,$,#100052,$,$,.ELEMENT.,11000.);
#100054=IFCRELAGGREGATES('1K82qL0g5SbA86Fz8glv9Q',#100006,$,$,#100028,(#100029));
#100055=IFCRELAGGREGATES('0DASkFTeHPhRj2BNSzEwcq',#100006,$,$,#100029,(#100030));
#100056=IFCRELAGGREGATES('3gXXuIIoHQFhK$eqVuHytV',#100006,$,$,#100030,(#100034,#100038,#100041,#100045,#100049,#100053));
#100057=IFCPROPERTYSINGLEVALUE('NumberOfStoreys',$,IFCINTEGER(5),$);
#100058=IFCPROPERTYSINGLEVALUE('OccupancyType',$,IFCLABEL('Hotel'),$);
#100059=IFCPROPERTYSINGLEVALUE('GrossPlannedArea',$,IFCAREAMEASURE(6170.),$);
#100060=IFCPROPERTYSET('3d5FVmRXbHywhmD5x4lMsK',#100006,'Pset_BuildingCommon',$,(#100057,#100058,#100059));
#100061=IFCRELDEFINESBYPROPERTIES('1T$XMrySjN6R5ixLTxS3uH',#100006,$,$,(#100030),#100060);
#100062=IFCAXIS2PLACEMENT3D(#100019,$,$);
#100063=IFCLOCALPLACEMENT(#100037,#100062);
#100064=IFCCARTESIANPOINT((20000.,10000.));
#100065=IFCAXIS2PLACEMENT2D(#100064,$);
#100066=IFCRECTANGLEPROFILEDEF(.AREA.,$,#100065,40000.,20000.);
#100067=IFCEXTRUDEDAREASOLID(#100066,#100021,#100020,2800.);
#100068=IFCSHAPEREPRESENTATION(#100023,'Body','SweptSolid',(#100067));
#100069=IFCPRODUCTDEFINITIONSHAPE($,$,(#100068));
#100070=IFCSPACE('27ZjyqLOXJlQxTlEtOO7PU',#100006,'S1-01',$,$,#100063,#100069,'Parcare',.ELEMENT.,.PARKING.,$);
#100071=IFCQUANTITYAREA('NetFloorArea',$,$,800.,$);
#100072=IFCQUANTITYAREA('GrossFloorArea',$,$,815.2,$);
#100073=IFCELEMENTQUANTITY('1_g0RHtF5TdPoJaTRY95iB',#100006,'Qto_SpaceBaseQuantities',$,$,(#100071,#100072));
#100074=IFCRELDEFINESBYPROPERTIES('1ioE1dqifJf8XSExypwZ9V',#100006,$,$,(#100070),#100073);
#100075=IFCPROPERTYSINGLEVALUE('Reference',$,IFCIDENTIFIER('S1-01'),$);
#100076=IFCPROPERTYSINGLEVALUE('IsExternal',$,IFCBOOLEAN(.F.),$);
#100077=IFCPROPERTYSET('2DJq8WJeHVDxmp7fUkS83Z',#100006,'Pset_SpaceCommon',$,(#100075,#100076));
#100078=IFCRELDEFINESBYPROPERTIES('2Hj3N$YdnPHf3MqXd7TZ1R',#100006,$,$,(#100070),#100077);
#100079=IFCCARTESIANPOINT((40000.,0.,0.));
#100080=IFCAXIS2PLACEMENT3D(#100079,$,$);
#100081=IFCLOCALPLACEMENT(#100037,#100080);
#100082=IFCCARTESIANPOINT((5000.,4000.));
#100083=IFCAXIS2PLACEMENT2D(#100082,$);
#100084=IFCRECTANGLEPROFILEDEF(.AREA.,$,#100083,10000.,8000.);
#100085=IFCEXTRUDEDAREASOLID(#100084,#100021,#100020,2800.);
#100086=IFCSHAPEREPRESENTATION(#100023,'Body','SweptSolid',(#100085));
#100087=IFCPRODUCTDEFINITIONSHAPE($,$,(#100086));
#100088=IFCSPACE('1yEL02i$LUWvotAPWc1TbI',#100006,'S1-02',$,$,#100081,#100087,'Camer\X2\0103\X0\ tehnic\X2\0103\X0\ ventilare',.ELEMENT.,.SPACE.,$);
#100089=IFCQUANTITYAREA('NetFloorArea',$,$,80.,$);
#100090=IFCQUANTITYAREA('GrossFloorArea',$,$,82.4,$);
#100091=IFCELEMENTQUANTITY('2bFkT1lLnSwx3svPTDxxZl',#100006,'Qto_SpaceBaseQuantities',$,$,(#100089,#100090));
#100092=IFCRELDEFINESBYPROPERTIES('2QmfutaZPLXAUKBjGbiUH2',#100006,$,$,(#100088),#100091);
#100093=IFCPROPERTYSINGLEVALUE('Reference',$,IFCIDENTIFIER('S1-02'),$);
#100094=IFCPROPERTYSINGLEVALUE('IsExternal',$,IFCBOOLEAN(.F.),$);
#100095=IFCPROPERTYSET('0Bc611uoDJi9CG7gpR_avE',#100006,'Pset_SpaceCommon',$,(#100093,#100094));
#100096=IFCRELDEFINESBYPROPERTIES('0cQxjcPY9S1g2O_z8wwHj6',#100006,$,$,(#100088),#100095);
#100097=IFCCARTESIANPOINT((50000.,0.,0.));
#100098=IFCAXIS2PLACEMENT3D(#100097,$,$);
#100099=IFCLOCALPLACEMENT(#100037,#100098);
#100100=IFCCARTESIANPOINT((5850.,4000.));
#100101=IFCAXIS2PLACEMENT2D(#100100,$);
#100102=IFCRECTANGLEPROFILEDEF(.AREA.,$,#100101,11700.,8000.);
#100103=IFCEXTRUDEDAREASOLID(#100102,#100021,#100020,2800.);
#100104=IFCSHAPEREPRESENTATION(#100023,'Body','SweptSolid',(#100103));
#100105=IFCPRODUCTDEFINITIONSHAPE($,$,(#100104));
#100106=IFCSPACE('1ueP89usrHLOInVcwhhdEu',#100006,'S1-03',$,$,#100099,#100105,'Central\X2\0103\X0\ termic\X2\0103\X0\',.ELEMENT.,.SPACE.,$);
#100107=IFCQUANTITYAREA('NetFloorArea',$,$,93.6,$);
#100108=IFCQUANTITYAREA('GrossFloorArea',$,$,96.3,$);
#100109=IFCELEMENTQUANTITY('0qcC4KdonN0gvzVXrc_suw',#100006,'Qto_SpaceBaseQuantities',$,$,(#100107,#100108));
#100110=IFCRELDEFINESBYPROPERTIES('2PAbLwzcXT0x585bIItB2k',#100006,$,$,(#100106),#100109);
#100111=IFCPROPERTYSINGLEVALUE('Reference',$,IFCIDENTIFIER('S1-03'),$);
#100112=IFCPROPERTYSINGLEVALUE('IsExternal',$,IFCBOOLEAN(.F.),$);
#100113=IFCPROPERTYSET('2yBrfczyrQkh36m75iSl$Y',#100006,'Pset_SpaceCommon',$,(#100111,#100112));
#100114=IFCRELDEFINESBYPROPERTIES('2HgrniqDDG3O7VnqTQat87',#100006,$,$,(#100106),#100113);
#100115=IFCAXIS2PLACEMENT3D(#100019,$,$);
#100116=IFCLOCALPLACEMENT(#100040,#100115);
#100117=IFCCARTESIANPOINT((10000.,6000.));
#100118=IFCAXIS2PLACEMENT2D(#100117,$);
#100119=IFCRECTANGLEPROFILEDEF(.AREA.,$,#100118,20000.,12000.);
#100120=IFCEXTRUDEDAREASOLID(#100119,#100021,#100020,3600.);
#100121=IFCSHAPEREPRESENTATION(#100023,'Body','SweptSolid',(#100120));
#100122=IFCPRODUCTDEFINITIONSHAPE($,$,(#100121));
#100123=IFCSPACE('2qIRN3ktXLlgQRccgg4nOo',#100006,'P-01',$,$,#100116,#100122,'Recep\X2\021B\X0\ie',.ELEMENT.,.SPACE.,$);
#100124=IFCQUANTITYAREA('NetFloorArea',$,$,240.,$);
#100125=IFCQUANTITYAREA('GrossFloorArea',$,$,246.1,$);
#100126=IFCELEMENTQUANTITY('2P7lN_WybRQOLW2iJ1uoaQ',#100006,'Qto_SpaceBaseQuantities',$,$,(#100124,#100125));
#100127=IFCRELDEFINESBYPROPERTIES('1R5CIogSHOKufbSbvQyDsZ',#100006,$,$,(#100123),#100126);
#100128=IFCPROPERTYSINGLEVALUE('Reference',$,IFCIDENTIFIER('P-01'),$);
#100129=IFCPROPERTYSINGLEVALUE('IsExternal',$,IFCBOOLEAN(.F.),$);
#100130=IFCPROPERTYSET('2mB8Ga8jTK4Od11jQ44GQ4',#100006,'Pset_SpaceCommon',$,(#100128,#100129));
#100131=IFCRELDEFINESBYPROPERTIES('3rFjA3G51PmPZ6p6YJ9BNY',#100006,$,$,(#100123),#100130);
#100132=IFCCARTESIANPOINT((20000.,0.,0.));
#100133=IFCAXIS2PLACEMENT3D(#100132,$,$);
#100134=IFCLOCALPLACEMENT(#100040,#100133);
#100135=IFCCARTESIANPOINT((12000.,7000.));
#100136=IFCAXIS2PLACEMENT2D(#100135,$);
#100137=IFCRECTANGLEPROFILEDEF(.AREA.,$,#100136,24000.,14000.);
#100138=IFCEXTRUDEDAREASOLID(#100137,#100021,#100020,3600.);
#100139=IFCSHAPEREPRESENTATION(#100023,'Body','SweptSolid',(#100138));
#100140=IFCPRODUCTDEFINITIONSHAPE($,$,(#100139));
#100141=IFCSPACE('25e0qMbWzUPvi6AtdGe$xR',#100006,'P-02',$,$,#100134,#100140,'Restaurant',.ELEMENT.,.SPACE.,$);
#100142=IFCQUANTITYAREA('NetFloorArea',$,$,336.,$);
#100143=IFCQUANTITYAREA('GrossFloorArea',$,$,344.7,$);
#100144=IFCELEMENTQUANTITY('2SinjIfdnR1vRk$YMJsj0e',#100006,'Qto_SpaceBaseQuantities',$,$,(#100142,#100143));
#100145=IFCRELDEFINESBYPROPERTIES('38a$$P6lrV98ZVw67cpU5e',#100006,$,$,(#100141),#100144);
#100146=IFCPROPERTYSINGLEVALUE('Reference',$,IFCIDENTIFIER('P-02'),$);
#100147=IFCPROPERTYSINGLEVALUE('IsExternal',$,IFCBOOLEAN(.F.),$);
#100148=IFCPROPERTYSET('3wsrTtibzMVufbGTr1ZzL_',#100006,'Pset_SpaceCommon',$,(#100146,#100147));
#100149=IFCRELDEFINESBYPROPERTIES('2atqfqi81Lrufv1QkkQO_R',#100006,$,$,(#100141),#100148);
#100150=IFCCARTESIANPOINT((0.,12000.,0.));
#100151=IFCAXIS2PLACEMENT3D(#100150,$,$);
#100152=IFCLOCALPLACEMENT(#100040,#100151);
#100153=IFCCARTESIANPOINT((10000.,4000.));
#100154=IFCAXIS2PLACEMENT2D(#100153,$);
#100155=IFCRECTANGLEPROFILEDEF(.AREA.,$,#100154,20000.,8000.);
#100156=IFCEXTRUDEDAREASOLID(#100155,#100021,#100020,3600.);
#100157=IFCSHAPEREPRESENTATION(#100023,'Body','SweptSolid',(#100156));
#100158=IFCPRODUCTDEFINITIONSHAPE($,$,(#100157));
#100159=IFCSPACE('1QXKLiF3jMQfZw0B$xAzzS',#100006,'P-03',$,$,#100152,#100158,'Hol',.ELEMENT.,.SPACE.,$);
#100160=IFCQUANTITYAREA('NetFloorArea',$,$,160.,$);
#100161=IFCQUANTITYAREA('GrossFloorArea',$,$,164.3,$);
#100162=IFCELEMENTQUANTITY('2Eeepq_JfUW86DA_cQxqk_',#100006,'Qto_SpaceBaseQuantities',$,$,(#100160,#100161));
#100163=IFCRELDEFINESBYPROPERTIES('2yZe5mWkvRRPQGYT2hRW0J',#100006,$,$,(#100159),#100162);
#100164=IFCPROPERTYSINGLEVALUE('Reference',$,IFCIDENTIFIER('P-03'),$);
#100165=IFCPROPERTYSINGLEVALUE('IsExternal',$,IFCBOOLEAN(.F.),$);
#100166=IFCPROPERTYSET('2Ux41r6VnKjwKeYnT8CoTo',#100006,'Pset_SpaceCommon',$,(#100164,#100165));
#100167=IFCRELDEFINESBYPROPERTIES('0sOSWnlKPTng9yRcWgh3_n',#100006,$,$,(#100159),#100166);
#100168=IFCAXIS2PLACEMENT3D(#100019,$,$);
#100169=IFCLOCALPLACEMENT(#100040,#100168);
#100170=IFCCARTESIANPOINT((30850.,10000.));
#100171=IFCAXIS2PLACEMENT2D(#100170,$);
#100172=IFCRECTANGLEPROFILEDEF(.AREA.,$,#100171,61700.,20000.);
#100173=IFCEXTRUDEDAREASOLID(#100172,#100021,#100020,3600.);
#100174=IFCSHAPEREPRESENTATION(#100023,'Body','SweptSolid',(#100173));
#100175=IFCPRODUCTDEFINITIONSHAPE($,$,(#100174));
#100176=IFCSPACE('0MVN3ztWvMFxNPnhZuAo4H',#100006,'P-GFA',$,$,#100169,#100175,'Parter arie construit\X2\0103\X0\ (GFA)',.ELEMENT.,.GFA.,$);
#100177=IFCQUANTITYAREA('NetFloorArea',$,$,1234.,$);
#100178=IFCQUANTITYAREA('GrossFloorArea',$,$,1234.,$);
#100179=IFCELEMENTQUANTITY('1Ua5n_IIPMrA7Ok$VPMzPo',#100006,'Qto_SpaceBaseQuantities',$,$,(#100177,#100178));
#100180=IFCRELDEFINESBYPROPERTIES('0AXGNfFtXUeRI59DtAwoAt',#100006,$,$,(#100176),#100179);
#100181=IFCPROPERTYSINGLEVALUE('Reference',$,IFCIDENTIFIER('P-GFA'),$);
#100182=IFCPROPERTYSINGLEVALUE('IsExternal',$,IFCBOOLEAN(.F.),$);
#100183=IFCPROPERTYSET('3A9zGx$i5Tp9$kcN6gIOPk',#100006,'Pset_SpaceCommon',$,(#100181,#100182));
#100184=IFCRELDEFINESBYPROPERTIES('2QesZKN9LM3B51S3vCI4bg',#100006,$,$,(#100176),#100183);
#100185=IFCAXIS2PLACEMENT3D(#100019,$,$);
#100186=IFCLOCALPLACEMENT(#100044,#100185);
#100187=IFCCARTESIANPOINT((2400.,2750.));
#100188=IFCAXIS2PLACEMENT2D(#100187,$);
#100189=IFCRECTANGLEPROFILEDEF(.AREA.,$,#100188,4800.,5500.);
#100190=IFCEXTRUDEDAREASOLID(#100189,#100021,#100020,3000.);
#100191=IFCSHAPEREPRESENTATION(#100023,'Body','SweptSolid',(#100190));
#100192=IFCPRODUCTDEFINITIONSHAPE($,$,(#100191));
#100193=IFCSPACE('3Jkyb$bFHQQwZPia2eTSaI',#100006,'101',$,$,#100186,#100192,'Camer\X2\0103\X0\ 101',.ELEMENT.,.SPACE.,$);
#100194=IFCQUANTITYAREA('NetFloorArea',$,$,26.4,$);
#100195=IFCQUANTITYAREA('GrossFloorArea',$,$,27.6,$);
#100196=IFCELEMENTQUANTITY('01hTGtLMvN3hrTjianrlk6',#100006,'Qto_SpaceBaseQuantities',$,$,(#100194,#100195));
#100197=IFCRELDEFINESBYPROPERTIES('2OLtklzC5J5fesXKLi8Qhm',#100006,$,$,(#100193),#100196);
#100198=IFCPROPERTYSINGLEVALUE('Reference',$,IFCIDENTIFIER('101'),$);
#100199=IFCPROPERTYSINGLEVALUE('IsExternal',$,IFCBOOLEAN(.F.),$);
#100200=IFCPROPERTYSET('1po8q2$RPNius86DmOWhMa',#100006,'Pset_SpaceCommon',$,(#100198,#100199));
#100201=IFCRELDEFINESBYPROPERTIES('06OtywnOHM4uTQyLfmzwTe',#100006,$,$,(#100193),#100200);
#100202=IFCCARTESIANPOINT((4800.,0.,0.));
#100203=IFCAXIS2PLACEMENT3D(#100202,$,$);
#100204=IFCLOCALPLACEMENT(#100044,#100203);
#100205=IFCEXTRUDEDAREASOLID(#100189,#100021,#100020,3000.);
#100206=IFCSHAPEREPRESENTATION(#100023,'Body','SweptSolid',(#100205));
#100207=IFCPRODUCTDEFINITIONSHAPE($,$,(#100206));
#100208=IFCSPACE('38y4EK$1XMge8M5DZzcwaR',#100006,'102',$,$,#100204,#100207,'Camer\X2\0103\X0\ 102',.ELEMENT.,.SPACE.,$);
#100209=IFCQUANTITYAREA('NetFloorArea',$,$,26.4,$);
#100210=IFCQUANTITYAREA('GrossFloorArea',$,$,27.6,$);
#100211=IFCELEMENTQUANTITY('0zDTYq6VXOQfaifQuN430P',#100006,'Qto_SpaceBaseQuantities',$,$,(#100209,#100210));
#100212=IFCRELDEFINESBYPROPERTIES('2LtMddej5JXwrqM88TpDsV',#100006,$,$,(#100208),#100211);
#100213=IFCPROPERTYSINGLEVALUE('Reference',$,IFCIDENTIFIER('102'),$);
#100214=IFCPROPERTYSINGLEVALUE('IsExternal',$,IFCBOOLEAN(.F.),$);
#100215=IFCPROPERTYSET('3Xyj9D6BjHdPDNdK6cgita',#100006,'Pset_SpaceCommon',$,(#100213,#100214));
#100216=IFCRELDEFINESBYPROPERTIES('0DFIyPKGbQmOnvt3pg8sus',#100006,$,$,(#100208),#100215);
#100217=IFCCARTESIANPOINT((9600.,0.,0.));
#100218=IFCAXIS2PLACEMENT3D(#100217,$,$);
#100219=IFCLOCALPLACEMENT(#100044,#100218);
#100220=IFCEXTRUDEDAREASOLID(#100189,#100021,#100020,3000.);
#100221=IFCSHAPEREPRESENTATION(#100023,'Body','SweptSolid',(#100220));
#100222=IFCPRODUCTDEFINITIONSHAPE($,$,(#100221));
#100223=IFCSPACE('3xsvxDzhnIJAAg1ouwMDal',#100006,'103',$,$,#100219,#100222,'Camer\X2\0103\X0\ 103',.ELEMENT.,.SPACE.,$);
#100224=IFCQUANTITYAREA('NetFloorArea',$,$,26.4,$);
#100225=IFCQUANTITYAREA('GrossFloorArea',$,$,27.6,$);
#100226=IFCELEMENTQUANTITY('1QRwuy4R9PdO9z9bnZa4nU',#100006,'Qto_SpaceBaseQuantities',$,$,(#100224,#100225));
#100227=IFCRELDEFINESBYPROPERTIES('0aIOE5rH1JbfW4GzGiHs$D',#100006,$,$,(#100223),#100226);
#100228=IFCPROPERTYSINGLEVALUE('Reference',$,IFCIDENTIFIER('103'),$);
#100229=IFCPROPERTYSINGLEVALUE('IsExternal',$,IFCBOOLEAN(.F.),$);
#100230=IFCPROPERTYSET('37NqfK_hzGQx005ZcUtN2o',#100006,'Pset_SpaceCommon',$,(#100228,#100229));
#100231=IFCRELDEFINESBYPROPERTIES('2$AetsB4zIX8DiFZM5Vd6C',#100006,$,$,(#100223),#100230);
#100232=IFCCARTESIANPOINT((14400.,0.,0.));
#100233=IFCAXIS2PLACEMENT3D(#100232,$,$);
#100234=IFCLOCALPLACEMENT(#100044,#100233);
#100235=IFCCARTESIANPOINT((2410.,2500.));
#100236=IFCAXIS2PLACEMENT2D(#100235,$);
#100237=IFCRECTANGLEPROFILEDEF(.AREA.,$,#100236,4820.,5000.);
#100238=IFCEXTRUDEDAREASOLID(#100237,#100021,#100020,3000.);
#100239=IFCSHAPEREPRESENTATION(#100023,'Body','SweptSolid',(#100238));
#100240=IFCPRODUCTDEFINITIONSHAPE($,$,(#100239));
#100241=IFCSPACE('04zJ$hIRTOfQh6Q_b7IdH3',#100006,'104',$,$,#100234,#100240,'Camer\X2\0103\X0\ 104',.ELEMENT.,.SPACE.,$);
#100242=IFCQUANTITYAREA('NetFloorArea',$,$,26.4,$);
#100243=IFCQUANTITYAREA('GrossFloorArea',$,$,26.4,$);
#100244=IFCELEMENTQUANTITY('3L0CimQyDRqgeZ8WBesXQX',#100006,'Qto_SpaceBaseQuantities',$,$,(#100242,#100243));
#100245=IFCRELDEFINESBYPROPERTIES('36BKtvO$DN3wukMtIOMhC3',#100006,$,$,(#100241),#100244);
#100246=IFCPROPERTYSINGLEVALUE('Reference',$,IFCIDENTIFIER('104'),$);
#100247=IFCPROPERTYSINGLEVALUE('IsExternal',$,IFCBOOLEAN(.F.),$);
#100248=IFCPROPERTYSET('0eBAxtwWzQE9E1$H30ZV6O',#100006,'Pset_SpaceCommon',$,(#100246,#100247));
#100249=IFCRELDEFINESBYPROPERTIES('3zzoFsuCTOq8tBr4kuSGny',#100006,$,$,(#100241),#100248);
#100250=IFCCARTESIANPOINT((0.,8500.,0.));
#100251=IFCAXIS2PLACEMENT3D(#100250,$,$);
#100252=IFCLOCALPLACEMENT(#100044,#100251);
#100253=IFCEXTRUDEDAREASOLID(#100189,#100021,#100020,3000.);
#100254=IFCSHAPEREPRESENTATION(#100023,'Body','SweptSolid',(#100253));
#100255=IFCPRODUCTDEFINITIONSHAPE($,$,(#100254));
#100256=IFCSPACE('23lTUKdE5PdwUsHYY9SR_5',#100006,'105',$,$,#100252,#100255,'Camer\X2\0103\X0\ 105',.ELEMENT.,.SPACE.,$);
#100257=IFCQUANTITYAREA('NetFloorArea',$,$,26.4,$);
#100258=IFCQUANTITYAREA('GrossFloorArea',$,$,27.6,$);
#100259=IFCELEMENTQUANTITY('3mYQ0_oUHOThgT_fhz8Ung',#100006,'Qto_SpaceBaseQuantities',$,$,(#100257,#100258));
#100260=IFCRELDEFINESBYPROPERTIES('1JyvO00ajMguWhMePNI0s_',#100006,$,$,(#100256),#100259);
#100261=IFCPROPERTYSINGLEVALUE('Reference',$,IFCIDENTIFIER('105'),$);
#100262=IFCPROPERTYSINGLEVALUE('IsExternal',$,IFCBOOLEAN(.F.),$);
#100263=IFCPROPERTYSET('2KHHjvny9KdfbGe4jdWu8w',#100006,'Pset_SpaceCommon',$,(#100261,#100262));
#100264=IFCRELDEFINESBYPROPERTIES('0WaC0IYV1VUByOxTp5RLct',#100006,$,$,(#100256),#100263);
#100265=IFCCARTESIANPOINT((4800.,8500.,0.));
#100266=IFCAXIS2PLACEMENT3D(#100265,$,$);
#100267=IFCLOCALPLACEMENT(#100044,#100266);
#100268=IFCEXTRUDEDAREASOLID(#100189,#100021,#100020,3000.);
#100269=IFCSHAPEREPRESENTATION(#100023,'Body','SweptSolid',(#100268));
#100270=IFCPRODUCTDEFINITIONSHAPE($,$,(#100269));
#100271=IFCSPACE('0gs85uoHzIbP5S219ap8PQ',#100006,'106',$,$,#100267,#100270,'Camer\X2\0103\X0\ 106',.ELEMENT.,.SPACE.,$);
#100272=IFCQUANTITYAREA('NetFloorArea',$,$,26.4,$);
#100273=IFCQUANTITYAREA('GrossFloorArea',$,$,27.6,$);
#100274=IFCELEMENTQUANTITY('3Emm3HZP1IWhJPClQXvUKb',#100006,'Qto_SpaceBaseQuantities',$,$,(#100272,#100273));
#100275=IFCRELDEFINESBYPROPERTIES('3U3MB_hDLQYv8B6u$dKFg_',#100006,$,$,(#100271),#100274);
#100276=IFCPROPERTYSINGLEVALUE('Reference',$,IFCIDENTIFIER('106'),$);
#100277=IFCPROPERTYSINGLEVALUE('IsExternal',$,IFCBOOLEAN(.F.),$);
#100278=IFCPROPERTYSET('3NzuvBhyLNGgOiJWFHOt_o',#100006,'Pset_SpaceCommon',$,(#100276,#100277));
#100279=IFCRELDEFINESBYPROPERTIES('3MHwVVulLLkA5XU5mzk$O3',#100006,$,$,(#100271),#100278);
#100280=IFCCARTESIANPOINT((9600.,8500.,0.));
#100281=IFCAXIS2PLACEMENT3D(#100280,$,$);
#100282=IFCLOCALPLACEMENT(#100044,#100281);
#100283=IFCEXTRUDEDAREASOLID(#100189,#100021,#100020,3000.);
#100284=IFCSHAPEREPRESENTATION(#100023,'Body','SweptSolid',(#100283));
#100285=IFCPRODUCTDEFINITIONSHAPE($,$,(#100284));
#100286=IFCSPACE('0SLwQJhS5LmAJF8NT3hkNh',#100006,'107',$,$,#100282,#100285,'Camer\X2\0103\X0\ 107',.ELEMENT.,.SPACE.,$);
#100287=IFCQUANTITYAREA('NetFloorArea',$,$,26.4,$);
#100288=IFCQUANTITYAREA('GrossFloorArea',$,$,27.6,$);
#100289=IFCELEMENTQUANTITY('070dsUrI5Iz9QekQWXqnQ5',#100006,'Qto_SpaceBaseQuantities',$,$,(#100287,#100288));
#100290=IFCRELDEFINESBYPROPERTIES('0XPGh1RUfS7B86ZoILG47p',#100006,$,$,(#100286),#100289);
#100291=IFCPROPERTYSINGLEVALUE('Reference',$,IFCIDENTIFIER('107'),$);
#100292=IFCPROPERTYSINGLEVALUE('IsExternal',$,IFCBOOLEAN(.F.),$);
#100293=IFCPROPERTYSET('0h01xtELzIRwyqBjpPqeU5',#100006,'Pset_SpaceCommon',$,(#100291,#100292));
#100294=IFCRELDEFINESBYPROPERTIES('0BI0j7NN5VU87vby7P3O0A',#100006,$,$,(#100286),#100293);
#100295=IFCCARTESIANPOINT((14400.,8500.,0.));
#100296=IFCAXIS2PLACEMENT3D(#100295,$,$);
#100297=IFCLOCALPLACEMENT(#100044,#100296);
#100298=IFCEXTRUDEDAREASOLID(#100189,#100021,#100020,3000.);
#100299=IFCSHAPEREPRESENTATION(#100023,'Body','SweptSolid',(#100298));
#100300=IFCPRODUCTDEFINITIONSHAPE($,$,(#100299));
#100301=IFCSPACE('1zhM$dW1TTyvo5ESMBNRA_',#100006,'108',$,$,#100297,#100300,'Camer\X2\0103\X0\ 108',.ELEMENT.,.SPACE.,$);
#100302=IFCQUANTITYAREA('NetFloorArea',$,$,26.4,$);
#100303=IFCQUANTITYAREA('GrossFloorArea',$,$,27.6,$);
#100304=IFCELEMENTQUANTITY('33tLkaNmjSXOBjv2EYKp7U',#100006,'Qto_SpaceBaseQuantities',$,$,(#100302,#100303));
#100305=IFCRELDEFINESBYPROPERTIES('22j5$PNiTKwB6VE16rVhBu',#100006,$,$,(#100301),#100304);
#100306=IFCPROPERTYSINGLEVALUE('Reference',$,IFCIDENTIFIER('108'),$);
#100307=IFCPROPERTYSINGLEVALUE('IsExternal',$,IFCBOOLEAN(.F.),$);
#100308=IFCPROPERTYSET('1vKjP411XOZ83OiXHz3QJA',#100006,'Pset_SpaceCommon',$,(#100306,#100307));
#100309=IFCRELDEFINESBYPROPERTIES('30WM$C$5jMzeuSO_GaBCDS',#100006,$,$,(#100301),#100308);
#100310=IFCCARTESIANPOINT((0.,5500.,0.));
#100311=IFCAXIS2PLACEMENT3D(#100310,$,$);
#100312=IFCLOCALPLACEMENT(#100044,#100311);
#100313=IFCCARTESIANPOINT((9600.,1500.));
#100314=IFCAXIS2PLACEMENT2D(#100313,$);
#100315=IFCRECTANGLEPROFILEDEF(.AREA.,$,#100314,19200.,3000.);
#100316=IFCEXTRUDEDAREASOLID(#100315,#100021,#100020,3000.);
#100317=IFCSHAPEREPRESENTATION(#100023,'Body','SweptSolid',(#100316));
#100318=IFCPRODUCTDEFINITIONSHAPE($,$,(#100317));
#100319=IFCSPACE('2XJRuIBqzNpOkflYjT$dbj',#100006,'E1-H',$,$,#100312,#100318,'Hol E1',.ELEMENT.,.SPACE.,$);
#100320=IFCQUANTITYAREA('NetFloorArea',$,$,57.6,$);
#100321=IFCQUANTITYAREA('GrossFloorArea',$,$,59.,$);
#100322=IFCELEMENTQUANTITY('3$VUd4j7DMcvG4LWagfv4L',#100006,'Qto_SpaceBaseQuantities',$,$,(#100320,#100321));
#100323=IFCRELDEFINESBYPROPERTIES('3wx$haQJbOTvqWv0s_Oti3',#100006,$,$,(#100319),#100322);
#100324=IFCPROPERTYSINGLEVALUE('Reference',$,IFCIDENTIFIER('E1-H'),$);
#100325=IFCPROPERTYSINGLEVALUE('IsExternal',$,IFCBOOLEAN(.F.),$);
#100326=IFCPROPERTYSET('0rRk7VoSPTJPIiZUcY$Omf',#100006,'Pset_SpaceCommon',$,(#100324,#100325));
#100327=IFCRELDEFINESBYPROPERTIES('0C$B14oJ5TuBvzHeZvN7T2',#100006,$,$,(#100319),#100326);
#100328=IFCAXIS2PLACEMENT3D(#100019,$,$);
#100329=IFCLOCALPLACEMENT(#100048,#100328);
#100330=IFCEXTRUDEDAREASOLID(#100189,#100021,#100020,3000.);
#100331=IFCSHAPEREPRESENTATION(#100023,'Body','SweptSolid',(#100330));
#100332=IFCPRODUCTDEFINITIONSHAPE($,$,(#100331));
#100333=IFCSPACE('3S5pwgI85HIxRYkGTvL3tA',#100006,'201',$,$,#100329,#100332,'Camer\X2\0103\X0\ 201',.ELEMENT.,.SPACE.,$);
#100334=IFCQUANTITYAREA('NetFloorArea',$,$,26.4,$);
#100335=IFCQUANTITYAREA('GrossFloorArea',$,$,27.6,$);
#100336=IFCELEMENTQUANTITY('0uuhMmU7jUVvoyWpM8ryKL',#100006,'Qto_SpaceBaseQuantities',$,$,(#100334,#100335));
#100337=IFCRELDEFINESBYPROPERTIES('1wl7_lzi1VEP0l$LrAaSJP',#100006,$,$,(#100333),#100336);
#100338=IFCPROPERTYSINGLEVALUE('Reference',$,IFCIDENTIFIER('201'),$);
#100339=IFCPROPERTYSINGLEVALUE('IsExternal',$,IFCBOOLEAN(.F.),$);
#100340=IFCPROPERTYSET('2$UNVo40XPx8auBgEBZF6V',#100006,'Pset_SpaceCommon',$,(#100338,#100339));
#100341=IFCRELDEFINESBYPROPERTIES('11aqqZxYbP2RkG2GBLB589',#100006,$,$,(#100333),#100340);
#100342=IFCCARTESIANPOINT((4800.,0.,0.));
#100343=IFCAXIS2PLACEMENT3D(#100342,$,$);
#100344=IFCLOCALPLACEMENT(#100048,#100343);
#100345=IFCEXTRUDEDAREASOLID(#100189,#100021,#100020,3000.);
#100346=IFCSHAPEREPRESENTATION(#100023,'Body','SweptSolid',(#100345));
#100347=IFCPRODUCTDEFINITIONSHAPE($,$,(#100346));
#100348=IFCSPACE('1nxNRLzTTUG8TJRsaCCu3u',#100006,'202',$,$,#100344,#100347,'Camer\X2\0103\X0\ 202',.ELEMENT.,.SPACE.,$);
#100349=IFCQUANTITYAREA('NetFloorArea',$,$,26.4,$);
#100350=IFCQUANTITYAREA('GrossFloorArea',$,$,27.6,$);
#100351=IFCELEMENTQUANTITY('3x9nSPRSbTEAaoKnO9j6IZ',#100006,'Qto_SpaceBaseQuantities',$,$,(#100349,#100350));
#100352=IFCRELDEFINESBYPROPERTIES('0DLDrr_3bLqw0ZZtMCBBpk',#100006,$,$,(#100348),#100351);
#100353=IFCPROPERTYSINGLEVALUE('Reference',$,IFCIDENTIFIER('202'),$);
#100354=IFCPROPERTYSINGLEVALUE('IsExternal',$,IFCBOOLEAN(.F.),$);
#100355=IFCPROPERTYSET('11NgkQyMXSoRZ$vvjx9bi2',#100006,'Pset_SpaceCommon',$,(#100353,#100354));
#100356=IFCRELDEFINESBYPROPERTIES('2iha4kihDGOhgc42awwhfY',#100006,$,$,(#100348),#100355);
#100357=IFCCARTESIANPOINT((9600.,0.,0.));
#100358=IFCAXIS2PLACEMENT3D(#100357,$,$);
#100359=IFCLOCALPLACEMENT(#100048,#100358);
#100360=IFCEXTRUDEDAREASOLID(#100189,#100021,#100020,3000.);
#100361=IFCSHAPEREPRESENTATION(#100023,'Body','SweptSolid',(#100360));
#100362=IFCPRODUCTDEFINITIONSHAPE($,$,(#100361));
#100363=IFCSPACE('2rTezj7M5R2AQwfsiS3_Sy',#100006,'203',$,$,#100359,#100362,'Camer\X2\0103\X0\ 203',.ELEMENT.,.SPACE.,$);
#100364=IFCQUANTITYAREA('NetFloorArea',$,$,26.4,$);
#100365=IFCQUANTITYAREA('GrossFloorArea',$,$,27.6,$);
#100366=IFCELEMENTQUANTITY('3qCCerkH5L6wETqdkkFNVj',#100006,'Qto_SpaceBaseQuantities',$,$,(#100364,#100365));
#100367=IFCRELDEFINESBYPROPERTIES('0rdzaiT4zKXQk_yN$m7pbm',#100006,$,$,(#100363),#100366);
#100368=IFCPROPERTYSINGLEVALUE('Reference',$,IFCIDENTIFIER('203'),$);
#100369=IFCPROPERTYSINGLEVALUE('IsExternal',$,IFCBOOLEAN(.F.),$);
#100370=IFCPROPERTYSET('2mJkmG7P1UUvCTDgIP75fz',#100006,'Pset_SpaceCommon',$,(#100368,#100369));
#100371=IFCRELDEFINESBYPROPERTIES('3NdoDXmfjOPu9K4B7rzLaC',#100006,$,$,(#100363),#100370);
#100372=IFCCARTESIANPOINT((14400.,0.,0.));
#100373=IFCAXIS2PLACEMENT3D(#100372,$,$);
#100374=IFCLOCALPLACEMENT(#100048,#100373);
#100375=IFCEXTRUDEDAREASOLID(#100189,#100021,#100020,3000.);
#100376=IFCSHAPEREPRESENTATION(#100023,'Body','SweptSolid',(#100375));
#100377=IFCPRODUCTDEFINITIONSHAPE($,$,(#100376));
#100378=IFCSPACE('2hvcX2eRzQyehezRjyPkbf',#100006,'204',$,$,#100374,#100377,'Camer\X2\0103\X0\ 204',.ELEMENT.,.SPACE.,$);
#100379=IFCQUANTITYAREA('NetFloorArea',$,$,26.4,$);
#100380=IFCQUANTITYAREA('GrossFloorArea',$,$,27.6,$);
#100381=IFCELEMENTQUANTITY('1Lk0bjOXDQQOtPAd3nrYrn',#100006,'Qto_SpaceBaseQuantities',$,$,(#100379,#100380));
#100382=IFCRELDEFINESBYPROPERTIES('3$TGjDnezSgehc69rljCiC',#100006,$,$,(#100378),#100381);
#100383=IFCPROPERTYSINGLEVALUE('Reference',$,IFCIDENTIFIER('204'),$);
#100384=IFCPROPERTYSINGLEVALUE('IsExternal',$,IFCBOOLEAN(.F.),$);
#100385=IFCPROPERTYSET('1Jmb7Ep9jOhPVgoWqA2ck1',#100006,'Pset_SpaceCommon',$,(#100383,#100384));
#100386=IFCRELDEFINESBYPROPERTIES('1UmeJfbFfU7eTWQgJ28TI2',#100006,$,$,(#100378),#100385);
#100387=IFCCARTESIANPOINT((0.,8500.,0.));
#100388=IFCAXIS2PLACEMENT3D(#100387,$,$);
#100389=IFCLOCALPLACEMENT(#100048,#100388);
#100390=IFCEXTRUDEDAREASOLID(#100189,#100021,#100020,3000.);
#100391=IFCSHAPEREPRESENTATION(#100023,'Body','SweptSolid',(#100390));
#100392=IFCPRODUCTDEFINITIONSHAPE($,$,(#100391));
#100393=IFCSPACE('1nWYrlyZbPaeQK4pHWfvf7',#100006,'205',$,$,#100389,#100392,'Camer\X2\0103\X0\ 205',.ELEMENT.,.SPACE.,$);
#100394=IFCQUANTITYAREA('NetFloorArea',$,$,26.4,$);
#100395=IFCQUANTITYAREA('GrossFloorArea',$,$,27.6,$);
#100396=IFCELEMENTQUANTITY('13CYlwtZ9GqRoEJ$ipWOYv',#100006,'Qto_SpaceBaseQuantities',$,$,(#100394,#100395));
#100397=IFCRELDEFINESBYPROPERTIES('3KGj02Rz5VFQxzw1EVDdPz',#100006,$,$,(#100393),#100396);
#100398=IFCPROPERTYSINGLEVALUE('Reference',$,IFCIDENTIFIER('205'),$);
#100399=IFCPROPERTYSINGLEVALUE('IsExternal',$,IFCBOOLEAN(.F.),$);
#100400=IFCPROPERTYSET('0uLIXuE$zOMfQwOwaaxUzj',#100006,'Pset_SpaceCommon',$,(#100398,#100399));
#100401=IFCRELDEFINESBYPROPERTIES('2Klcf_OGLOj86TYjH3YItT',#100006,$,$,(#100393),#100400);
#100402=IFCCARTESIANPOINT((4800.,8500.,0.));
#100403=IFCAXIS2PLACEMENT3D(#100402,$,$);
#100404=IFCLOCALPLACEMENT(#100048,#100403);
#100405=IFCEXTRUDEDAREASOLID(#100189,#100021,#100020,3000.);
#100406=IFCSHAPEREPRESENTATION(#100023,'Body','SweptSolid',(#100405));
#100407=IFCPRODUCTDEFINITIONSHAPE($,$,(#100406));
#100408=IFCSPACE('3HveNzQljHu9o0w2E$Mln_',#100006,'206',$,$,#100404,#100407,'Camer\X2\0103\X0\ 206',.ELEMENT.,.SPACE.,$);
#100409=IFCQUANTITYAREA('NetFloorArea',$,$,26.4,$);
#100410=IFCQUANTITYAREA('GrossFloorArea',$,$,27.6,$);
#100411=IFCELEMENTQUANTITY('2idNYHuobPbO7XuZJlpzvj',#100006,'Qto_SpaceBaseQuantities',$,$,(#100409,#100410));
#100412=IFCRELDEFINESBYPROPERTIES('1LjZoPb8jR5Ai1MzgBe2_e',#100006,$,$,(#100408),#100411);
#100413=IFCPROPERTYSINGLEVALUE('Reference',$,IFCIDENTIFIER('206'),$);
#100414=IFCPROPERTYSINGLEVALUE('IsExternal',$,IFCBOOLEAN(.F.),$);
#100415=IFCPROPERTYSET('3f_GbsYi1PE8Ll2x5ldhGK',#100006,'Pset_SpaceCommon',$,(#100413,#100414));
#100416=IFCRELDEFINESBYPROPERTIES('0uAentpW5Uve4E1XzBOkqi',#100006,$,$,(#100408),#100415);
#100417=IFCCARTESIANPOINT((9600.,8500.,0.));
#100418=IFCAXIS2PLACEMENT3D(#100417,$,$);
#100419=IFCLOCALPLACEMENT(#100048,#100418);
#100420=IFCEXTRUDEDAREASOLID(#100189,#100021,#100020,3000.);
#100421=IFCSHAPEREPRESENTATION(#100023,'Body','SweptSolid',(#100420));
#100422=IFCPRODUCTDEFINITIONSHAPE($,$,(#100421));
#100423=IFCSPACE('0XTxJARKvJFgPlyNKs0zZo',#100006,'207',$,$,#100419,#100422,'Camer\X2\0103\X0\ 207',.ELEMENT.,.SPACE.,$);
#100424=IFCPROPERTYSINGLEVALUE('Reference',$,IFCIDENTIFIER('207'),$);
#100425=IFCPROPERTYSINGLEVALUE('IsExternal',$,IFCBOOLEAN(.F.),$);
#100426=IFCPROPERTYSET('0FhU4aWFDU0ukYZUWEaVXQ',#100006,'Pset_SpaceCommon',$,(#100424,#100425));
#100427=IFCRELDEFINESBYPROPERTIES('1JNrDFBsjPdRCOd$6n35Hs',#100006,$,$,(#100423),#100426);
#100428=IFCCARTESIANPOINT((14400.,8500.,0.));
#100429=IFCAXIS2PLACEMENT3D(#100428,$,$);
#100430=IFCLOCALPLACEMENT(#100048,#100429);
#100431=IFCEXTRUDEDAREASOLID(#100189,#100021,#100020,3000.);
#100432=IFCSHAPEREPRESENTATION(#100023,'Body','SweptSolid',(#100431));
#100433=IFCPRODUCTDEFINITIONSHAPE($,$,(#100432));
#100434=IFCSPACE('07SW7ZiGjJHhMmI9S_QZcJ',#100006,'208',$,$,#100430,#100433,'Camer\X2\0103\X0\ 208',.ELEMENT.,.SPACE.,$);
#100435=IFCQUANTITYAREA('NetFloorArea',$,$,26.4,$);
#100436=IFCQUANTITYAREA('GrossFloorArea',$,$,27.6,$);
#100437=IFCELEMENTQUANTITY('0LEnbuHl1GZfpFvEaiiLbu',#100006,'Qto_SpaceBaseQuantities',$,$,(#100435,#100436));
#100438=IFCRELDEFINESBYPROPERTIES('1jFnEYmkzLf9gV7w$cBfFg',#100006,$,$,(#100434),#100437);
#100439=IFCPROPERTYSINGLEVALUE('Reference',$,IFCIDENTIFIER('208'),$);
#100440=IFCPROPERTYSINGLEVALUE('IsExternal',$,IFCBOOLEAN(.F.),$);
#100441=IFCPROPERTYSET('2nZQnQBr1JFOsy54WbAuNp',#100006,'Pset_SpaceCommon',$,(#100439,#100440));
#100442=IFCRELDEFINESBYPROPERTIES('2UgrvTSAjHOAjWQ40wBhID',#100006,$,$,(#100434),#100441);
#100443=IFCAXIS2PLACEMENT3D(#100019,$,$);
#100444=IFCLOCALPLACEMENT(#100048,#100443);
#100445=IFCSPACE('2qHVHCn9DPUwzzkWAdCdVs',#100006,'E2-H',$,$,#100444,$,'Hol E2',.ELEMENT.,.SPACE.,$);
#100446=IFCPROPERTYSINGLEVALUE('Reference',$,IFCIDENTIFIER('E2-H'),$);
#100447=IFCPROPERTYSINGLEVALUE('IsExternal',$,IFCBOOLEAN(.F.),$);
#100448=IFCPROPERTYSET('1LlM_ChyzPtghj0kQnnD9e',#100006,'Pset_SpaceCommon',$,(#100446,#100447));
#100449=IFCRELDEFINESBYPROPERTIES('275cei575PbPbOytfIGKLr',#100006,$,$,(#100445),#100448);
#100450=IFCRELAGGREGATES('2aYQY_ejHScgV34lH0SG8z',#100006,$,$,#100038,(#100070,#100088,#100106));
#100451=IFCRELAGGREGATES('3OuuFKbUPQ$uD$9pf5u5iw',#100006,$,$,#100041,(#100123,#100141,#100159,#100176));
#100452=IFCRELAGGREGATES('3UgGNR$ILKBOewUxIUKGdq',#100006,$,$,#100045,(#100193,#100208,#100223,#100241,#100256,#100271,#100286,#100301,#100319));
#100453=IFCRELAGGREGATES('3GFjuDdzrLNfJKC9cA_WvM',#100006,$,$,#100049,(#100333,#100348,#100363,#100378,#100393,#100408,#100423,#100434,#100445));
#100454=IFCZONE('23W3_r8$nTDPcNpSXU0kfk',#100006,'Compartiment de incendiu C1',$,$,$);
#100455=IFCRELASSIGNSTOGROUP('2a5NDtSXPKLOOuGsQKPLXa',#100006,$,$,(#100123,#100141,#100159),$,#100454);
#100456=IFCCARTESIANPOINT((0.,0.,-250.));
#100457=IFCAXIS2PLACEMENT3D(#100456,$,$);
#100458=IFCLOCALPLACEMENT(#100033,#100457);
#100459=IFCEXTRUDEDAREASOLID(#100172,#100021,#100020,250.);
#100460=IFCSHAPEREPRESENTATION(#100023,'Body','SweptSolid',(#100459));
#100461=IFCPRODUCTDEFINITIONSHAPE($,$,(#100460));
#100462=IFCSLAB('0oAmGFkSLLVPZ3TfWpQpsn',#100006,'Plac\X2\0103\X0\ Subsol 2',$,$,#100458,#100461,$,.FLOOR.);
#100463=IFCCARTESIANPOINT((0.,0.,-250.));
#100464=IFCAXIS2PLACEMENT3D(#100463,$,$);
#100465=IFCLOCALPLACEMENT(#100037,#100464);
#100466=IFCEXTRUDEDAREASOLID(#100172,#100021,#100020,250.);
#100467=IFCSHAPEREPRESENTATION(#100023,'Body','SweptSolid',(#100466));
#100468=IFCPRODUCTDEFINITIONSHAPE($,$,(#100467));
#100469=IFCSLAB('1$GpH706zI1AmtUeN5n$2g',#100006,'Plac\X2\0103\X0\ Subsol 1',$,$,#100465,#100468,$,.FLOOR.);
#100470=IFCCARTESIANPOINT((0.,0.,-250.));
#100471=IFCAXIS2PLACEMENT3D(#100470,$,$);
#100472=IFCLOCALPLACEMENT(#100040,#100471);
#100473=IFCEXTRUDEDAREASOLID(#100172,#100021,#100020,250.);
#100474=IFCSHAPEREPRESENTATION(#100023,'Body','SweptSolid',(#100473));
#100475=IFCPRODUCTDEFINITIONSHAPE($,$,(#100474));
#100476=IFCSLAB('08XFG4nSvI3Qsn8kJo63fB',#100006,'Plac\X2\0103\X0\ Parter',$,$,#100472,#100475,$,.FLOOR.);
#100477=IFCCARTESIANPOINT((0.,0.,-250.));
#100478=IFCAXIS2PLACEMENT3D(#100477,$,$);
#100479=IFCLOCALPLACEMENT(#100044,#100478);
#100480=IFCEXTRUDEDAREASOLID(#100172,#100021,#100020,250.);
#100481=IFCSHAPEREPRESENTATION(#100023,'Body','SweptSolid',(#100480));
#100482=IFCPRODUCTDEFINITIONSHAPE($,$,(#100481));
#100483=IFCSLAB('3xPREqpJfPbx4oEMlC8XUS',#100006,'Plac\X2\0103\X0\ Etaj 1',$,$,#100479,#100482,$,.FLOOR.);
#100484=IFCCARTESIANPOINT((0.,0.,-250.));
#100485=IFCAXIS2PLACEMENT3D(#100484,$,$);
#100486=IFCLOCALPLACEMENT(#100048,#100485);
#100487=IFCEXTRUDEDAREASOLID(#100172,#100021,#100020,250.);
#100488=IFCSHAPEREPRESENTATION(#100023,'Body','SweptSolid',(#100487));
#100489=IFCPRODUCTDEFINITIONSHAPE($,$,(#100488));
#100490=IFCSLAB('3c$JUZrpjLVOeYt8PejEvD',#100006,'Plac\X2\0103\X0\ Etaj 2',$,$,#100486,#100489,$,.FLOOR.);
#100491=IFCCARTESIANPOINT((0.,6000.,0.));
#100492=IFCAXIS2PLACEMENT3D(#100491,$,$);
#100493=IFCLOCALPLACEMENT(#100040,#100492);
#100494=IFCCARTESIANPOINT((500.,100.));
#100495=IFCAXIS2PLACEMENT2D(#100494,$);
#100496=IFCRECTANGLEPROFILEDEF(.AREA.,$,#100495,1000.,200.);
#100497=IFCEXTRUDEDAREASOLID(#100496,#100021,#100020,2100.);
#100498=IFCSHAPEREPRESENTATION(#100023,'Body','SweptSolid',(#100497));
#100499=IFCPRODUCTDEFINITIONSHAPE($,$,(#100498));
#100500=IFCDOOR('1MasBnzQ5TIQ8ZxtQqCRuG',#100006,'U\X2\02190103\X0\ evacuare',$,$,#100493,#100499,'U-P-01',2100.,1000.,.DOOR.,.SINGLE_SWING_LEFT.,$);
#100501=IFCPROPERTYSINGLEVALUE('FireExit',$,IFCBOOLEAN(.T.),$);
#100502=IFCPROPERTYSINGLEVALUE('HasDrive',$,IFCBOOLEAN(.T.),$);
#100503=IFCPROPERTYSET('2FXTrlx0TKQBU$9qnZ8NuZ',#100006,'Pset_DoorCommon',$,(#100501,#100502));
#100504=IFCRELDEFINESBYPROPERTIES('02ytggv2XJcub7Iiueyibf',#100006,$,$,(#100500),#100503);
#100505=IFCCARTESIANPOINT((61000.,6000.,0.));
#100506=IFCAXIS2PLACEMENT3D(#100505,$,$);
#100507=IFCLOCALPLACEMENT(#100040,#100506);
#100508=IFCEXTRUDEDAREASOLID(#100496,#100021,#100020,2100.);
#100509=IFCSHAPEREPRESENTATION(#100023,'Body','SweptSolid',(#100508));
#100510=IFCPRODUCTDEFINITIONSHAPE($,$,(#100509));
#100511=IFCDOOR('0wdwTlpuzGkARjVbL0F0PE',#100006,'U\X2\015F0103\X0\ evacuare',$,$,#100507,#100510,'U-P-02',2100.,1000.,.DOOR.,.SINGLE_SWING_LEFT.,$);
#100512=IFCPROPERTYSINGLEVALUE('FireExit',$,IFCBOOLEAN(.T.),$);
#100513=IFCPROPERTYSINGLEVALUE('HasDrive',$,IFCBOOLEAN(.T.),$);
#100514=IFCPROPERTYSET('2SugVMLhnRiPL3G15LLGif',#100006,'Pset_DoorCommon',$,(#100512,#100513));
#100515=IFCRELDEFINESBYPROPERTIES('2j4RJh0KvTWf2T_XJyIDc5',#100006,$,$,(#100511),#100514);
#100516=IFCCARTESIANPOINT((20000.,13000.,0.));
#100517=IFCAXIS2PLACEMENT3D(#100516,$,$);
#100518=IFCLOCALPLACEMENT(#100040,#100517);
#100519=IFCEXTRUDEDAREASOLID(#100496,#100021,#100020,2100.);
#100520=IFCSHAPEREPRESENTATION(#100023,'Body','SweptSolid',(#100519));
#100521=IFCPRODUCTDEFINITIONSHAPE($,$,(#100520));
#100522=IFCDOOR('2HfSiDxjHO4fYSgNFprGlX',#100006,'U\X2\02190103\X0\ acces restaurant',$,$,#100518,#100521,'U-P-03',2100.,1000.,.DOOR.,.SINGLE_SWING_LEFT.,$);
#100523=IFCPROPERTYSINGLEVALUE('FireExit',$,IFCBOOLEAN(.F.),$);
#100524=IFCPROPERTYSINGLEVALUE('HasDrive',$,IFCBOOLEAN(.F.),$);
#100525=IFCPROPERTYSET('11YnDf5UjP7gWSwoV8KgGW',#100006,'Pset_DoorCommon',$,(#100523,#100524));
#100526=IFCRELDEFINESBYPROPERTIES('3LjWNJp31SW8t1jeWI1ldE',#100006,$,$,(#100522),#100525);
#100527=IFCCARTESIANPOINT((45150.,15150.,0.));
#100528=IFCAXIS2PLACEMENT3D(#100527,$,$);
#100529=IFCLOCALPLACEMENT(#100040,#100528);
#100530=IFCCARTESIANPOINT((1000.,1000.));
#100531=IFCAXIS2PLACEMENT2D(#100530,$);
#100532=IFCRECTANGLEPROFILEDEF(.AREA.,$,#100531,2000.,2000.);
#100533=IFCEXTRUDEDAREASOLID(#100532,#100021,#100020,3000.);
#100534=IFCSHAPEREPRESENTATION(#100023,'Body','SweptSolid',(#100533));
#100535=IFCPRODUCTDEFINITIONSHAPE($,$,(#100534));
#100536=IFCTRANSPORTELEMENT('1JnfP28qPPCOInWz0kPEnc',#100006,'Ascensor pompieri',$,$,#100529,#100535,'ASC-01',.ELEVATOR.);
#100537=IFCRELCONTAINEDINSPATIALSTRUCTURE('328FVcw_rRrfbSM_K6465D',#100006,$,$,(#100462),#100034);
#100538=IFCRELCONTAINEDINSPATIALSTRUCTURE('3pQreD$YDMae0OghZzC7M5',#100006,$,$,(#100469),#100038);
#100539=IFCRELCONTAINEDINSPATIALSTRUCTURE('1dLfz8NBrHS9qyAVtiogZ5',#100006,$,$,(#100476,#100500,#100511,#100522,#100536),#100041);
#100540=IFCRELCONTAINEDINSPATIALSTRUCTURE('0bHbx05irPtO4kHcO1wCkb',#100006,$,$,(#100483),#100045);
#100541=IFCRELCONTAINEDINSPATIALSTRUCTURE('0tP8qe$qDGH9KidNXDASPC',#100006,$,$,(#100490),#100049);
ENDSEC;
END-ISO-10303-21;
